<svg id="iconfinder_1_Instagram_colored_svg_1_5296765" xmlns="http://www.w3.org/2000/svg" width="15" height="15" viewBox="0 0 511.998 511.998"><path id="Path_3" data-name="Path 3" d="M256,0c-69.526,0-78.244.295-105.549,1.541-27.248,1.243-45.858,5.57-62.142,11.9A125.474,125.474,0,0,0,42.967,42.968,125.474,125.474,0,0,0,13.439,88.31C7.11,104.593,2.783,123.2,1.54,150.451.294,177.756,0,186.474,0,256s.294,78.242,1.54,105.547c1.243,27.248,5.57,45.858,11.9,62.141a125.5,125.5,0,0,0,29.528,45.344,125.484,125.484,0,0,0,45.342,29.527c16.284,6.328,34.894,10.656,62.142,11.9C177.756,511.7,186.474,512,256,512s78.242-.3,105.547-1.54c27.248-1.243,45.858-5.571,62.141-11.9a130.894,130.894,0,0,0,74.871-74.871c6.328-16.283,10.656-34.893,11.9-62.141C511.7,334.242,512,325.524,512,256s-.3-78.244-1.54-105.549c-1.243-27.248-5.571-45.858-11.9-62.141a125.483,125.483,0,0,0-29.527-45.342A125.5,125.5,0,0,0,423.688,13.44C407.4,7.111,388.795,2.784,361.547,1.541,334.242.295,325.524,0,256,0Zm0,46.127c68.354,0,76.451.26,103.445,1.492,24.959,1.139,38.514,5.309,47.535,8.814a79.32,79.32,0,0,1,29.435,19.15,79.315,79.315,0,0,1,19.15,29.435c3.506,9.021,7.676,22.576,8.815,47.535,1.231,26.995,1.492,35.092,1.492,103.447s-.261,76.451-1.492,103.445c-1.139,24.959-5.309,38.514-8.815,47.535a84.78,84.78,0,0,1-48.585,48.585c-9.021,3.506-22.576,7.676-47.535,8.814-26.99,1.232-35.086,1.493-103.445,1.493s-76.455-.261-103.447-1.493c-24.959-1.138-38.514-5.308-47.535-8.814a79.32,79.32,0,0,1-29.436-19.15A79.305,79.305,0,0,1,56.433,406.98c-3.506-9.021-7.676-22.576-8.815-47.535C46.386,332.451,46.126,324.354,46.126,256s.26-76.452,1.492-103.447c1.139-24.959,5.309-38.514,8.815-47.535A79.313,79.313,0,0,1,75.582,75.583a79.332,79.332,0,0,1,29.436-19.15c9.021-3.505,22.576-7.675,47.535-8.814,26.995-1.232,35.092-1.492,103.447-1.492Z"></path><path id="Path_4" data-name="Path 4" d="M256,341.332A85.333,85.333,0,1,1,341.332,256,85.333,85.333,0,0,1,256,341.332Zm0-216.792A131.459,131.459,0,1,0,387.458,256,131.459,131.459,0,0,0,256,124.54Z"></path><path id="Path_5" data-name="Path 5" d="M423.372,119.346a30.72,30.72,0,1,1-30.72-30.719,30.72,30.72,0,0,1,30.72,30.719Z"></path></svg>