<svg id="a" xmlns="http://www.w3.org/2000/svg" viewBox="0 0 88.59 12.78"><title>Bianchini Logo</title><path d="M10.1,1.49c.38,.49,.58,1.04,.58,1.69s-.2,1.24-.58,1.73c-.4,.49-.94,.83-1.6,1.01,.81,.16,1.44,.52,1.91,1.1,.45,.58,.68,1.28,.68,2.09,0,.7-.2,1.33-.59,1.85-.4,.54-.95,.95-1.69,1.22-.74,.29-1.58,.43-2.57,.43H0V0H6c.95,0,1.78,.13,2.48,.38,.7,.27,1.24,.63,1.62,1.12Zm-2.81,2.27c0-.38-.13-.68-.4-.9-.27-.2-.63-.31-1.08-.29H3.29v2.45h2.52c.45,0,.81-.11,1.08-.34,.27-.22,.4-.52,.4-.92Zm.4,4.93c0-.4-.16-.72-.5-.95-.34-.23-.79-.34-1.37-.32H3.29v2.65h2.52c.58,0,1.03-.13,1.37-.36,.34-.23,.5-.58,.5-1.01Z" style="fill:#fff;"/><path d="M18.27,4.21V12.62h-2.19V4.21h2.19Z" style="fill:#fff;"/><path d="M27.91,11.13h-3.63l-.59,1.49h-2.25l3.61-8.41h2.25l3.53,8.41h-2.34l-.58-1.49Zm-.65-1.68l-1.15-3-1.18,3h2.33Z" style="fill:#fff;"/><path d="M41.77,4.21V12.62h-1.92l-3.81-5.03v5.03h-2.05V4.21h1.93l3.83,5.06V4.21s2.03,0,2.03,0Z" style="fill:#fff;"/><path d="M49.81,5.94c-.42,0-.8,.11-1.15,.31-.35,.22-.62,.5-.83,.88-.2,.37-.3,.79-.3,1.25s.1,.86,.3,1.24c.2,.37,.48,.67,.83,.88,.35,.22,.73,.32,1.15,.32,.35,0,.71-.08,1.08-.26,.37-.18,.71-.42,1.01-.72l1.28,1.38c-.46,.48-1,.86-1.62,1.14-.64,.29-1.26,.43-1.87,.43-.83,0-1.58-.19-2.25-.58-.67-.38-1.2-.91-1.58-1.57s-.58-1.4-.58-2.23,.19-1.55,.59-2.21c.4-.66,.94-1.18,1.62-1.55,.68-.37,1.44-.56,2.29-.56,.62,0,1.24,.13,1.85,.38,.61,.26,1.13,.62,1.55,1.07l-1.27,1.54c-.28-.35-.6-.62-.97-.83-.37-.2-.74-.3-1.12-.3Z" style="fill:#fff;"/><path d="M58.71,4.21v3.43h3.39v-3.43h2.19V12.62h-2.19v-3.23h-3.39v3.23h-2.19V4.21h2.19Z" style="fill:#fff;"/><path d="M70.53,4.21V12.62h-2.19V4.21h2.19Z" style="fill:#fff;"/><path d="M82.35,4.21V12.62h-1.92l-3.81-5.03v5.03h-2.05V4.21h1.93l3.83,5.06V4.21s2.03,0,2.03,0Z" style="fill:#fff;"/><path d="M88.59,4.21V12.62h-2.19V4.21h2.19Z" style="fill:#fff;"/></svg>